<?xml version="1.0" encoding="UTF-8"?>
<svg width="60" height="60" viewBox="0 0 60 60" xmlns="http://www.w3.org/2000/svg">
  <defs>
    <linearGradient id="snowGradient" x1="0%" y1="0%" x2="100%" y2="100%">
      <stop offset="0%" style="stop-color:#E0F7FA;stop-opacity:1" />
      <stop offset="50%" style="stop-color:#B2EBF2;stop-opacity:1" />
      <stop offset="100%" style="stop-color:#80DEEA;stop-opacity:1" />
    </linearGradient>
  </defs>

  <!-- Main vertical line -->
  <line x1="30" y1="5" x2="30" y2="55" stroke="url(#snowGradient)" stroke-width="4" stroke-linecap="round"/>

  <!-- Main horizontal line -->
  <line x1="5" y1="30" x2="55" y2="30" stroke="url(#snowGradient)" stroke-width="4" stroke-linecap="round"/>

  <!-- Diagonal line 1 (top-left to bottom-right) -->
  <line x1="12" y1="12" x2="48" y2="48" stroke="url(#snowGradient)" stroke-width="4" stroke-linecap="round"/>

  <!-- Diagonal line 2 (top-right to bottom-left) -->
  <line x1="48" y1="12" x2="12" y2="48" stroke="url(#snowGradient)" stroke-width="4" stroke-linecap="round"/>

  <!-- Top branches -->
  <line x1="30" y1="10" x2="24" y2="16" stroke="url(#snowGradient)" stroke-width="2" stroke-linecap="round"/>
  <line x1="30" y1="10" x2="36" y2="16" stroke="url(#snowGradient)" stroke-width="2" stroke-linecap="round"/>

  <!-- Bottom branches -->
  <line x1="30" y1="50" x2="24" y2="44" stroke="url(#snowGradient)" stroke-width="2" stroke-linecap="round"/>
  <line x1="30" y1="50" x2="36" y2="44" stroke="url(#snowGradient)" stroke-width="2" stroke-linecap="round"/>

  <!-- Left branches -->
  <line x1="10" y1="30" x2="16" y2="24" stroke="url(#snowGradient)" stroke-width="2" stroke-linecap="round"/>
  <line x1="10" y1="30" x2="16" y2="36" stroke="url(#snowGradient)" stroke-width="2" stroke-linecap="round"/>

  <!-- Right branches -->
  <line x1="50" y1="30" x2="44" y2="24" stroke="url(#snowGradient)" stroke-width="2" stroke-linecap="round"/>
  <line x1="50" y1="30" x2="44" y2="36" stroke="url(#snowGradient)" stroke-width="2" stroke-linecap="round"/>

  <!-- Diagonal branches (top-left quadrant) -->
  <line x1="18" y1="18" x2="14" y2="22" stroke="url(#snowGradient)" stroke-width="2" stroke-linecap="round"/>
  <line x1="18" y1="18" x2="22" y2="14" stroke="url(#snowGradient)" stroke-width="2" stroke-linecap="round"/>

  <!-- Diagonal branches (top-right quadrant) -->
  <line x1="42" y1="18" x2="38" y2="14" stroke="url(#snowGradient)" stroke-width="2" stroke-linecap="round"/>
  <line x1="42" y1="18" x2="46" y2="22" stroke="url(#snowGradient)" stroke-width="2" stroke-linecap="round"/>

  <!-- Diagonal branches (bottom-left quadrant) -->
  <line x1="18" y1="42" x2="14" y2="38" stroke="url(#snowGradient)" stroke-width="2" stroke-linecap="round"/>
  <line x1="18" y1="42" x2="22" y2="46" stroke="url(#snowGradient)" stroke-width="2" stroke-linecap="round"/>

  <!-- Diagonal branches (bottom-right quadrant) -->
  <line x1="42" y1="42" x2="46" y2="38" stroke="url(#snowGradient)" stroke-width="2" stroke-linecap="round"/>
  <line x1="42" y1="42" x2="38" y2="46" stroke="url(#snowGradient)" stroke-width="2" stroke-linecap="round"/>

  <!-- Center crystal -->
  <circle cx="30" cy="30" r="5" fill="url(#snowGradient)"/>
  <circle cx="30" cy="30" r="3" fill="#FFFFFF" opacity="0.8"/>
</svg>
